<svg id="Calque_1" data-name="Calque 1" xmlns="http://www.w3.org/2000/svg" viewBox="0 0 172.95 46.2"><title>Atoti +-RVB</title><path d="M28.34,39.93H12.48l-1.54,5.43H0L15.16.58H25.59L40.82,45.36H29.88ZM26,31.8,20.35,12,14.72,31.8Z" style="fill:#291a40"/><path d="M60.6,37.56v7.8a34,34,0,0,1-6.24.52c-4.61,0-11-1-11-11.33V22.27H38.55V14.53h4.86V5.38H53.2v9.15h7.4v7.74H53.2V32.5c0,4.55,1.86,5.25,4.29,5.25a22.77,22.77,0,0,0,3.11-.19" style="fill:#291a40"/><path d="M63,29.94c0-9.4,6.53-16.25,17.15-16.25s17.08,6.85,17.08,16.25S90.74,46.2,80.18,46.2,63,39.35,63,29.94m24.47,0c0-4.67-2.75-8-7.36-8s-7.35,3.32-7.35,8,2.69,8,7.35,8,7.36-3.33,7.36-8" style="fill:#291a40"/><path d="M120.21,37.56v7.8a34,34,0,0,1-6.25.52c-4.6,0-10.93-1-10.93-11.33V22.27H98.16V14.53H103V5.38h9.79v9.15h7.39v7.74h-7.39V32.5c0,4.55,1.85,5.25,4.28,5.25a22.88,22.88,0,0,0,3.11-.19" style="fill:#291a40"/><path d="M123.31,6a6.08,6.08,0,0,1,12.15,0,6.08,6.08,0,0,1-12.15,0m1.21,8.51h9.72V45.36h-9.72Z" style="fill:#291a40"/><polygon points="158.49 11.01 158.49 26.05 172.95 26.05 172.95 30.2 158.49 30.2 158.49 45.36 154.08 45.36 154.08 30.2 139.62 30.2 139.62 26.05 154.08 26.05 154.08 11.01 158.49 11.01" style="fill:#291a40"/><path d="M28.34,39.93H12.48l-1.54,5.43H0L15.16.58H25.59L40.82,45.36H29.88ZM26,31.8,20.35,12,14.72,31.8Z" style="fill:#291a40"/><path d="M60.6,37.56v7.8a34,34,0,0,1-6.24.52c-4.61,0-11-1-11-11.33V22.27H38.55V14.53h4.86V5.38H53.2v9.15h7.4v7.74H53.2V32.5c0,4.55,1.86,5.25,4.29,5.25a22.77,22.77,0,0,0,3.11-.19" style="fill:#291a40"/><path d="M63,29.94c0-9.4,6.53-16.25,17.15-16.25s17.08,6.85,17.08,16.25S90.74,46.2,80.18,46.2,63,39.35,63,29.94m24.47,0c0-4.67-2.75-8-7.36-8s-7.35,3.32-7.35,8,2.69,8,7.35,8,7.36-3.33,7.36-8" style="fill:#291a40"/><path d="M120.21,37.56v7.8a34,34,0,0,1-6.25.52c-4.6,0-10.93-1-10.93-11.33V22.27H98.16V14.53H103V5.38h9.79v9.15h7.39v7.74h-7.39V32.5c0,4.55,1.85,5.25,4.28,5.25a22.88,22.88,0,0,0,3.11-.19" style="fill:#291a40"/><path d="M123.31,6a6.08,6.08,0,0,1,12.15,0,6.08,6.08,0,0,1-12.15,0m1.21,8.51h9.72V45.36h-9.72Z" style="fill:#291a40"/><polygon points="158.49 11.01 158.49 26.05 172.95 26.05 172.95 30.2 158.49 30.2 158.49 45.36 154.08 45.36 154.08 30.2 139.62 30.2 139.62 26.05 154.08 26.05 154.08 11.01 158.49 11.01" style="fill:#291a40"/></svg>